<?xml version="1.0" encoding="iso-8859-1"?>
<!-- Generator: Adobe Illustrator 19.0.0, SVG Export Plug-In . SVG Version: 6.00 Build 0)  -->
<svg version="1.1" id="Layer_1" xmlns="http://www.w3.org/2000/svg" xmlns:xlink="http://www.w3.org/1999/xlink" x="0px" y="0px"
	 viewBox="0 0 512.001 512.001" style="enable-background:new 0 0 512.001 512.001;" xml:space="preserve">
<path style="fill:#8FDA5D;" d="M381.233,0c-59.318,0-107.579,48.256-107.579,107.579c0,3.964,3.211,7.172,7.172,7.172
	c59.32,0,107.579-48.256,107.579-107.579C388.405,3.208,385.193,0,381.233,0z"/>
<path style="fill:#7DCD55;" d="M386.304,2.101L275.754,112.65c1.298,1.298,3.091,2.101,5.071,2.101
	c59.32,0,107.579-48.256,107.579-107.579C388.405,5.19,387.602,3.397,386.304,2.101z"/>
<path style="fill:#649B4B;" d="M324.03,64.375c-3.448-3.448-9.034-3.448-12.482,0l-49.99,49.989
	c-8.997-58.468-33.293-83.948-34.591-85.263c-3.409-3.457-8.952-3.473-12.431-0.086c-3.47,3.396-3.53,8.974-0.156,12.465
	c0.349,0.362,34.946,37.196,32.796,126.018c-0.12,4.879,3.737,8.922,8.607,9.042c0.073,0,0.147,0,0.22,0
	c4.775,0,8.702-3.81,8.818-8.612c0.27-11.144-0.052-21.45-0.743-31.122l59.95-59.95C327.478,73.409,327.478,67.823,324.03,64.375z"
	/>
<path style="fill:#E15050;" d="M368.668,154.956c-17.696-6.077-36.264-6.525-55.18-1.311c-37.607,10.362-77.368,10.362-114.975,0
	c-18.924-5.216-37.488-4.767-55.18,1.311C76.594,177.894,44.371,275.508,71.5,372.553c15.641,55.936,47.595,101.226,87.671,124.25
	c27.564,15.836,56.179,19.386,82.951,10.181c9.079-3.155,18.679-3.155,27.952,0.069c9.628,3.31,19.521,4.948,29.536,4.948
	c17.632,0,35.64-5.094,53.22-15.197c40.077-23.024,72.031-68.314,87.671-124.25C467.631,275.507,435.408,177.894,368.668,154.956z"
	/>
<path style="fill:#D24146;" d="M238.665,496.803c-36.432-23.024-65.48-68.314-79.698-124.25
	c-23.774-93.55,2.68-187.421,58.959-214.625c-6.514-1.164-13.002-2.517-19.413-4.283c-18.924-5.216-37.489-4.767-55.18,1.311
	C76.592,177.894,44.371,275.508,71.5,372.553c15.641,55.936,47.595,101.226,87.672,124.25
	c27.564,15.836,56.181,19.386,82.951,10.181c3.895-1.354,7.894-2.005,11.913-2.191C248.888,502.593,243.754,500.02,238.665,496.803z
	"/>
<path style="fill:#FF6E6E;" d="M398.003,373.906c-1.181,0-2.379-0.156-3.573-0.491c-7.043-1.965-11.154-9.275-9.189-16.318
	c7.19-25.697,9.034-55.393,5.069-81.469c-1.099-7.233,3.871-13.982,11.099-15.085c7.237-1.017,13.986,3.879,15.081,11.103
	c4.577,30.085,2.539,62.97-5.741,92.589C409.11,370.078,403.792,373.906,398.003,373.906z"/>
<path style="fill:#FF8282;" d="M388.387,240.493c-4.617,0-9.094-2.414-11.534-6.715c-4.155-7.335-9.012-13.266-14.434-17.636
	c-5.693-4.586-6.595-12.922-2.008-18.611c4.59-5.689,12.926-6.595,18.619-2.008c8.034,6.465,15.056,14.947,20.865,25.205
	c3.604,6.362,1.366,14.439-4.995,18.042C392.839,239.941,390.599,240.493,388.387,240.493z"/>
<g>
</g>
<g>
</g>
<g>
</g>
<g>
</g>
<g>
</g>
<g>
</g>
<g>
</g>
<g>
</g>
<g>
</g>
<g>
</g>
<g>
</g>
<g>
</g>
<g>
</g>
<g>
</g>
<g>
</g>
</svg>
