<?xml version="1.0" encoding="iso-8859-1"?>
<!-- Generator: Adobe Illustrator 19.0.0, SVG Export Plug-In . SVG Version: 6.00 Build 0)  -->
<svg version="1.1" id="Layer_1" xmlns="http://www.w3.org/2000/svg" xmlns:xlink="http://www.w3.org/1999/xlink" x="0px" y="0px"
	 viewBox="0 0 512.001 512.001" style="enable-background:new 0 0 512.001 512.001;" xml:space="preserve">
<g>
	<rect x="71.747" y="273.655" style="fill:#D24146;" width="176.552" height="17.655"/>
	<rect x="151.195" y="194.207" style="fill:#D24146;" width="17.655" height="176.552"/>
</g>
<path style="fill:#FFC855;" d="M257.116,26.483L36.427,150.069l0.003,264.828h256.009l-0.012-141.241
	c0-39.003,31.618-70.621,70.621-70.621s70.621,31.618,70.621,70.621l0.012,141.241h44.138l-0.012-264.828L257.116,26.483z
	 M160.025,370.759c-48.754,0-88.276-39.522-88.276-88.276s39.522-88.276,88.276-88.276s88.276,39.522,88.276,88.276
	S208.778,370.759,160.025,370.759z"/>
<g>
	<path style="fill:#E15050;" d="M160.026,379.59c-53.543,0-97.103-43.561-97.103-97.103s43.561-97.103,97.103-97.103
		s97.103,43.561,97.103,97.103S213.57,379.59,160.026,379.59z M160.026,203.038c-43.806,0-79.448,35.638-79.448,79.448
		s35.642,79.448,79.448,79.448s79.448-35.638,79.448-79.448S203.832,203.038,160.026,203.038z"/>
	<path style="fill:#E15050;" d="M477.818,406.069h-17.655c-4.875,0-8.828-3.953-8.828-8.828V276.772
		c0-46.973-35.367-88.054-82.234-91.19c-51.399-3.441-94.317,37.401-94.317,88.073v123.586c0,4.875-3.953,8.828-8.828,8.828H36.414
		c-4.875,0-8.828,3.953-8.828,8.828v88.276c0,4.875,3.953,8.828,8.828,8.828h238.369c9.751,0,17.655-7.904,17.655-17.655V276.15
		c0-37.577,28.291-70.441,65.783-72.952c41.119-2.755,75.458,29.918,75.458,70.458v220.69c0,9.751,7.904,17.655,17.655,17.655
		h26.483c4.875,0,8.828-3.953,8.828-8.828v-88.276C486.646,410.022,482.693,406.069,477.818,406.069z"/>
</g>
<path style="fill:#FAAF50;" d="M477.806,156.314L265.74,37.56c-5.336-2.983-11.853-3.009-17.198-0.025L36.426,155.383v40.388
	L257.081,73.181l220.727,123.605L477.806,156.314z"/>
<path style="fill:#E15050;" d="M18.8,176.552c-6.207,0-12.224-3.276-15.453-9.078c-4.733-8.526-1.664-19.276,6.862-24.009
	L248.542,11.051c5.345-2.983,11.862-2.957,17.198,0.025l236.104,132.215c8.509,4.767,11.543,15.526,6.781,24.034
	c-4.767,8.5-15.513,11.534-24.03,6.776L257.081,46.698L27.356,174.327C24.641,175.837,21.701,176.552,18.8,176.552z"/>
<g>
	<circle style="fill:#D24146;" cx="257.115" cy="26.483" r="26.483"/>
	<path style="fill:#D24146;" d="M89.404,450.207h-35.31c-4.875,0-8.828-3.953-8.828-8.828v-8.828c0-4.875,3.953-8.828,8.828-8.828
		h35.31c4.875,0,8.828,3.953,8.828,8.828v8.828C98.232,446.254,94.279,450.207,89.404,450.207z"/>
	<path style="fill:#D24146;" d="M486.646,450.207h-26.483c-4.875,0-8.828-3.953-8.828-8.828v-8.828c0-4.875,3.953-8.828,8.828-8.828
		h26.483V450.207z"/>
	<path style="fill:#D24146;" d="M195.335,494.345h-35.31c-4.875,0-8.828-3.953-8.828-8.828v-8.828c0-4.875,3.953-8.828,8.828-8.828
		h35.31c4.875,0,8.828,3.953,8.828,8.828v8.828C204.163,490.392,200.21,494.345,195.335,494.345z"/>
	<path style="fill:#D24146;" d="M265.956,494.345h-35.31c-4.875,0-8.828-3.953-8.828-8.828v-8.828c0-4.875,3.953-8.828,8.828-8.828
		h35.31c4.875,0,8.828,3.953,8.828,8.828v8.828C274.784,490.392,270.831,494.345,265.956,494.345z"/>
	<path style="fill:#D24146;" d="M292.439,450.207h-26.483c-4.875,0-8.828-3.953-8.828-8.828v-8.828c0-4.875,3.953-8.828,8.828-8.828
		h26.483V450.207z"/>
	<path style="fill:#D24146;" d="M160.025,450.207h-35.31c-4.875,0-8.828-3.953-8.828-8.828v-8.828c0-4.875,3.953-8.828,8.828-8.828
		h35.31c4.875,0,8.828,3.953,8.828,8.828v8.828C168.853,446.254,164.9,450.207,160.025,450.207z"/>
	<path style="fill:#D24146;" d="M230.646,450.207h-35.31c-4.875,0-8.828-3.953-8.828-8.828v-8.828c0-4.875,3.953-8.828,8.828-8.828
		h35.31c4.875,0,8.828,3.953,8.828,8.828v8.828C239.473,446.254,235.521,450.207,230.646,450.207z"/>
	<path style="fill:#D24146;" d="M54.094,494.345H27.611v-26.483h26.483c4.875,0,8.828,3.953,8.828,8.828v8.828
		C62.922,490.392,58.969,494.345,54.094,494.345z"/>
	<path style="fill:#D24146;" d="M460.163,494.345H433.68v-26.483h26.483c4.875,0,8.828,3.953,8.828,8.828v8.828
		C468.991,490.392,465.038,494.345,460.163,494.345z"/>
	<path style="fill:#D24146;" d="M124.715,494.345h-35.31c-4.875,0-8.828-3.953-8.828-8.828v-8.828c0-4.875,3.953-8.828,8.828-8.828
		h35.31c4.875,0,8.828,3.953,8.828,8.828v8.828C133.542,490.392,129.59,494.345,124.715,494.345z"/>
</g>
<g>
</g>
<g>
</g>
<g>
</g>
<g>
</g>
<g>
</g>
<g>
</g>
<g>
</g>
<g>
</g>
<g>
</g>
<g>
</g>
<g>
</g>
<g>
</g>
<g>
</g>
<g>
</g>
<g>
</g>
</svg>
